<mxfile host="app.diagrams.net" modified="2023-05-10T03:48:35.301Z" agent="Mozilla/5.0 (Windows NT 10.0; Win64; x64) AppleWebKit/537.36 (KHTML, like Gecko) Chrome/113.0.0.0 Safari/537.36" etag="yHvKwG1RUdZx3FEFGnLN" version="21.2.9" type="google">
  <diagram name="P치gina-1" id="b8PN-qfuAwBhBRi0ub18">
    <mxGraphModel grid="1" page="1" gridSize="10" guides="1" tooltips="1" connect="1" arrows="1" fold="1" pageScale="1" pageWidth="827" pageHeight="1169" math="0" shadow="0">
      <root>
        <mxCell id="0" />
        <mxCell id="1" parent="0" />
        <mxCell id="yJe1_wHuiv2NSmjCoZai-11" value="Mascota" style="rounded=0;whiteSpace=wrap;html=1;fillColor=#B9E0A5;" vertex="1" parent="1">
          <mxGeometry x="-346.5" y="2290" width="126.5" height="60" as="geometry" />
        </mxCell>
        <mxCell id="yJe1_wHuiv2NSmjCoZai-15" value="Due침o" style="rounded=0;whiteSpace=wrap;html=1;fillColor=#B9E0A5;" vertex="1" parent="1">
          <mxGeometry x="-52.5" y="2290" width="120" height="60" as="geometry" />
        </mxCell>
        <mxCell id="yJe1_wHuiv2NSmjCoZai-48" value="Ciudad" style="rounded=0;whiteSpace=wrap;html=1;fillColor=#B9E0A5;" vertex="1" parent="1">
          <mxGeometry x="272.5" y="2290" width="120" height="60" as="geometry" />
        </mxCell>
        <mxCell id="MwDHLRCjXJQAl22eHfPN-1" value="Pertenece" style="text;html=1;align=center;verticalAlign=middle;resizable=0;points=[];autosize=1;strokeColor=none;fillColor=none;" vertex="1" parent="1">
          <mxGeometry x="-179" y="2260" width="80" height="30" as="geometry" />
        </mxCell>
        <mxCell id="MwDHLRCjXJQAl22eHfPN-2" value="Posee" style="text;html=1;align=center;verticalAlign=middle;resizable=0;points=[];autosize=1;strokeColor=none;fillColor=none;" vertex="1" parent="1">
          <mxGeometry x="-169" y="2350" width="60" height="30" as="geometry" />
        </mxCell>
        <mxCell id="MwDHLRCjXJQAl22eHfPN-3" value="" style="endArrow=classic;html=1;rounded=0;" edge="1" parent="1">
          <mxGeometry width="50" height="50" relative="1" as="geometry">
            <mxPoint x="-120" y="2338" as="sourcePoint" />
            <mxPoint x="-160" y="2338" as="targetPoint" />
            <Array as="points" />
          </mxGeometry>
        </mxCell>
        <mxCell id="MwDHLRCjXJQAl22eHfPN-4" value="" style="endArrow=classic;html=1;rounded=0;" edge="1" parent="1">
          <mxGeometry width="50" height="50" relative="1" as="geometry">
            <mxPoint x="-159" y="2300" as="sourcePoint" />
            <mxPoint x="-119" y="2300" as="targetPoint" />
          </mxGeometry>
        </mxCell>
        <mxCell id="MwDHLRCjXJQAl22eHfPN-5" value="1...*" style="text;html=1;align=center;verticalAlign=middle;resizable=0;points=[];autosize=1;strokeColor=none;fillColor=none;" vertex="1" parent="1">
          <mxGeometry x="-219" y="2320" width="40" height="30" as="geometry" />
        </mxCell>
        <mxCell id="MwDHLRCjXJQAl22eHfPN-6" value="1" style="text;html=1;align=center;verticalAlign=middle;resizable=0;points=[];autosize=1;strokeColor=none;fillColor=none;" vertex="1" parent="1">
          <mxGeometry x="-82.5" y="2290" width="30" height="30" as="geometry" />
        </mxCell>
        <mxCell id="MwDHLRCjXJQAl22eHfPN-54" value="" style="endArrow=none;html=1;rounded=0;exitX=1;exitY=0.5;exitDx=0;exitDy=0;entryX=0;entryY=0.5;entryDx=0;entryDy=0;" edge="1" parent="1" source="yJe1_wHuiv2NSmjCoZai-11" target="yJe1_wHuiv2NSmjCoZai-15">
          <mxGeometry width="50" height="50" relative="1" as="geometry">
            <mxPoint x="80" y="2420" as="sourcePoint" />
            <mxPoint x="130" y="2370" as="targetPoint" />
          </mxGeometry>
        </mxCell>
        <mxCell id="MwDHLRCjXJQAl22eHfPN-67" value="Cuidado General" style="rounded=0;whiteSpace=wrap;html=1;fillColor=#B9E0A5;" vertex="1" parent="1">
          <mxGeometry x="-651" y="1840" width="120" height="60" as="geometry" />
        </mxCell>
        <mxCell id="MwDHLRCjXJQAl22eHfPN-68" value="Cuidado Personalizado" style="rounded=0;whiteSpace=wrap;html=1;fillColor=#B9E0A5;" vertex="1" parent="1">
          <mxGeometry x="-656" y="2080" width="120" height="60" as="geometry" />
        </mxCell>
        <mxCell id="MwDHLRCjXJQAl22eHfPN-69" value="1" style="text;html=1;align=center;verticalAlign=middle;resizable=0;points=[];autosize=1;strokeColor=none;fillColor=none;" vertex="1" parent="1">
          <mxGeometry x="-376.5" y="2290" width="30" height="30" as="geometry" />
        </mxCell>
        <mxCell id="MwDHLRCjXJQAl22eHfPN-70" value="1" style="text;html=1;align=center;verticalAlign=middle;resizable=0;points=[];autosize=1;strokeColor=none;fillColor=none;" vertex="1" parent="1">
          <mxGeometry x="-547.5" y="2320" width="30" height="30" as="geometry" />
        </mxCell>
        <mxCell id="MwDHLRCjXJQAl22eHfPN-71" value="" style="endArrow=classic;html=1;rounded=0;" edge="1" parent="1">
          <mxGeometry width="50" height="50" relative="1" as="geometry">
            <mxPoint x="-418.5" y="2338" as="sourcePoint" />
            <mxPoint x="-458.5" y="2338" as="targetPoint" />
            <Array as="points" />
          </mxGeometry>
        </mxCell>
        <mxCell id="MwDHLRCjXJQAl22eHfPN-72" value="Tiene" style="text;html=1;align=center;verticalAlign=middle;resizable=0;points=[];autosize=1;strokeColor=none;fillColor=none;" vertex="1" parent="1">
          <mxGeometry x="-460.75" y="2350" width="50" height="30" as="geometry" />
        </mxCell>
        <mxCell id="MwDHLRCjXJQAl22eHfPN-73" value="" style="endArrow=classic;html=1;rounded=0;" edge="1" parent="1">
          <mxGeometry width="50" height="50" relative="1" as="geometry">
            <mxPoint x="-460.75" y="2305.5" as="sourcePoint" />
            <mxPoint x="-420.75" y="2305" as="targetPoint" />
          </mxGeometry>
        </mxCell>
        <mxCell id="MwDHLRCjXJQAl22eHfPN-74" value="Pertenece" style="text;html=1;align=center;verticalAlign=middle;resizable=0;points=[];autosize=1;strokeColor=none;fillColor=none;" vertex="1" parent="1">
          <mxGeometry x="-475.75" y="2270" width="80" height="30" as="geometry" />
        </mxCell>
        <mxCell id="UCLFohhbQZBKjiZj5Wj--3" value="" style="endArrow=none;html=1;rounded=0;entryX=1;entryY=0.5;entryDx=0;entryDy=0;exitX=0;exitY=0.5;exitDx=0;exitDy=0;" edge="1" parent="1" source="yJe1_wHuiv2NSmjCoZai-48" target="yJe1_wHuiv2NSmjCoZai-15">
          <mxGeometry width="50" height="50" relative="1" as="geometry">
            <mxPoint x="305" y="2320" as="sourcePoint" />
            <mxPoint x="93.5" y="2320" as="targetPoint" />
          </mxGeometry>
        </mxCell>
        <mxCell id="UCLFohhbQZBKjiZj5Wj--6" value="Propietario&lt;br&gt;Ubicaci칩n" style="rounded=0;whiteSpace=wrap;html=1;fillColor=#B9E0A5;" vertex="1" parent="1">
          <mxGeometry x="689.5" y="2522.5" width="120" height="60" as="geometry" />
        </mxCell>
        <mxCell id="ZzYNdUPN7LLtYU_6-GgD-4" value="Ubicaci칩n" style="rounded=0;whiteSpace=wrap;html=1;fillColor=#B9E0A5;" vertex="1" parent="1">
          <mxGeometry x="630.5" y="2287.5" width="262.5" height="60" as="geometry" />
        </mxCell>
        <mxCell id="ZzYNdUPN7LLtYU_6-GgD-7" value="Especie" style="rounded=0;whiteSpace=wrap;html=1;fillColor=#B9E0A5;" vertex="1" parent="1">
          <mxGeometry x="-346.5" y="1840" width="120" height="60" as="geometry" />
        </mxCell>
        <mxCell id="ZzYNdUPN7LLtYU_6-GgD-8" value="Raza" style="rounded=0;whiteSpace=wrap;html=1;fillColor=#B9E0A5;" vertex="1" parent="1">
          <mxGeometry x="-343" y="2080" width="116.5" height="60" as="geometry" />
        </mxCell>
        <mxCell id="ZzYNdUPN7LLtYU_6-GgD-10" value="" style="endArrow=none;html=1;rounded=0;exitX=1;exitY=0.5;exitDx=0;exitDy=0;entryX=0;entryY=0.5;entryDx=0;entryDy=0;" edge="1" parent="1" source="MwDHLRCjXJQAl22eHfPN-67" target="ZzYNdUPN7LLtYU_6-GgD-7">
          <mxGeometry width="50" height="50" relative="1" as="geometry">
            <mxPoint x="-335.5" y="1910" as="sourcePoint" />
            <mxPoint x="-398.5" y="1870" as="targetPoint" />
          </mxGeometry>
        </mxCell>
        <mxCell id="ZzYNdUPN7LLtYU_6-GgD-12" value="" style="endArrow=none;html=1;rounded=0;entryX=1;entryY=0.5;entryDx=0;entryDy=0;exitX=0;exitY=0.5;exitDx=0;exitDy=0;" edge="1" parent="1" source="ZzYNdUPN7LLtYU_6-GgD-8" target="MwDHLRCjXJQAl22eHfPN-68">
          <mxGeometry width="50" height="50" relative="1" as="geometry">
            <mxPoint x="-283.5" y="2210" as="sourcePoint" />
            <mxPoint x="-285.5" y="2290" as="targetPoint" />
          </mxGeometry>
        </mxCell>
        <mxCell id="ZzYNdUPN7LLtYU_6-GgD-23" value="1" style="text;html=1;align=center;verticalAlign=middle;resizable=0;points=[];autosize=1;strokeColor=none;fillColor=none;" vertex="1" parent="1">
          <mxGeometry x="-380" y="1840" width="30" height="30" as="geometry" />
        </mxCell>
        <mxCell id="ZzYNdUPN7LLtYU_6-GgD-24" value="1...*" style="text;html=1;align=center;verticalAlign=middle;resizable=0;points=[];autosize=1;strokeColor=none;fillColor=none;" vertex="1" parent="1">
          <mxGeometry x="-536" y="1870" width="40" height="30" as="geometry" />
        </mxCell>
        <mxCell id="ZzYNdUPN7LLtYU_6-GgD-25" value="" style="endArrow=classic;html=1;rounded=0;" edge="1" parent="1">
          <mxGeometry width="50" height="50" relative="1" as="geometry">
            <mxPoint x="-467" y="1850" as="sourcePoint" />
            <mxPoint x="-427" y="1850" as="targetPoint" />
          </mxGeometry>
        </mxCell>
        <mxCell id="ZzYNdUPN7LLtYU_6-GgD-26" value="" style="endArrow=classic;html=1;rounded=0;" edge="1" parent="1">
          <mxGeometry width="50" height="50" relative="1" as="geometry">
            <mxPoint x="-427" y="1884.7399999999998" as="sourcePoint" />
            <mxPoint x="-467" y="1884.7399999999998" as="targetPoint" />
            <Array as="points" />
          </mxGeometry>
        </mxCell>
        <mxCell id="ZzYNdUPN7LLtYU_6-GgD-27" value="Tiene" style="text;html=1;align=center;verticalAlign=middle;resizable=0;points=[];autosize=1;strokeColor=none;fillColor=none;" vertex="1" parent="1">
          <mxGeometry x="-468.5" y="1890" width="50" height="30" as="geometry" />
        </mxCell>
        <mxCell id="ZzYNdUPN7LLtYU_6-GgD-28" value="Hace parte" style="text;html=1;align=center;verticalAlign=middle;resizable=0;points=[];autosize=1;strokeColor=none;fillColor=none;" vertex="1" parent="1">
          <mxGeometry x="-490" y="1810" width="80" height="30" as="geometry" />
        </mxCell>
        <mxCell id="ZzYNdUPN7LLtYU_6-GgD-38" value="0...*" style="text;html=1;align=center;verticalAlign=middle;resizable=0;points=[];autosize=1;strokeColor=none;fillColor=none;" vertex="1" parent="1">
          <mxGeometry x="-534" y="2110" width="40" height="30" as="geometry" />
        </mxCell>
        <mxCell id="ZzYNdUPN7LLtYU_6-GgD-40" value="1" style="text;html=1;align=center;verticalAlign=middle;resizable=0;points=[];autosize=1;strokeColor=none;fillColor=none;" vertex="1" parent="1">
          <mxGeometry x="-373" y="2080" width="30" height="30" as="geometry" />
        </mxCell>
        <mxCell id="ZzYNdUPN7LLtYU_6-GgD-41" value="Presenta" style="text;html=1;align=center;verticalAlign=middle;resizable=0;points=[];autosize=1;strokeColor=none;fillColor=none;" vertex="1" parent="1">
          <mxGeometry x="-468.5" y="2130" width="70" height="30" as="geometry" />
        </mxCell>
        <mxCell id="ZzYNdUPN7LLtYU_6-GgD-42" value="Pertenecen" style="text;html=1;align=center;verticalAlign=middle;resizable=0;points=[];autosize=1;strokeColor=none;fillColor=none;" vertex="1" parent="1">
          <mxGeometry x="-468.5" y="2060" width="80" height="30" as="geometry" />
        </mxCell>
        <mxCell id="ZzYNdUPN7LLtYU_6-GgD-45" value="" style="endArrow=classic;html=1;rounded=0;" edge="1" parent="1">
          <mxGeometry width="50" height="50" relative="1" as="geometry">
            <mxPoint x="-453.5" y="2094.64" as="sourcePoint" />
            <mxPoint x="-413.5" y="2094.64" as="targetPoint" />
          </mxGeometry>
        </mxCell>
        <mxCell id="ZzYNdUPN7LLtYU_6-GgD-46" value="" style="endArrow=classic;html=1;rounded=0;" edge="1" parent="1">
          <mxGeometry width="50" height="50" relative="1" as="geometry">
            <mxPoint x="-413.5" y="2124.64" as="sourcePoint" />
            <mxPoint x="-453.5" y="2124.64" as="targetPoint" />
            <Array as="points" />
          </mxGeometry>
        </mxCell>
        <mxCell id="ZzYNdUPN7LLtYU_6-GgD-47" value="1...*" style="text;html=1;align=center;verticalAlign=middle;resizable=0;points=[];autosize=1;strokeColor=none;fillColor=none;" vertex="1" parent="1">
          <mxGeometry x="61" y="2320" width="40" height="30" as="geometry" />
        </mxCell>
        <mxCell id="ZzYNdUPN7LLtYU_6-GgD-48" value="" style="endArrow=classic;html=1;rounded=0;" edge="1" parent="1">
          <mxGeometry width="50" height="50" relative="1" as="geometry">
            <mxPoint x="151" y="2300" as="sourcePoint" />
            <mxPoint x="191" y="2300" as="targetPoint" />
          </mxGeometry>
        </mxCell>
        <mxCell id="ZzYNdUPN7LLtYU_6-GgD-49" value="" style="endArrow=classic;html=1;rounded=0;" edge="1" parent="1">
          <mxGeometry width="50" height="50" relative="1" as="geometry">
            <mxPoint x="191" y="2338" as="sourcePoint" />
            <mxPoint x="151" y="2338" as="targetPoint" />
            <Array as="points" />
          </mxGeometry>
        </mxCell>
        <mxCell id="ZzYNdUPN7LLtYU_6-GgD-50" value="Tiene" style="text;html=1;align=center;verticalAlign=middle;resizable=0;points=[];autosize=1;strokeColor=none;fillColor=none;" vertex="1" parent="1">
          <mxGeometry x="143.5" y="2350" width="50" height="30" as="geometry" />
        </mxCell>
        <mxCell id="ZzYNdUPN7LLtYU_6-GgD-52" value="Se encuentra" style="text;html=1;align=center;verticalAlign=middle;resizable=0;points=[];autosize=1;strokeColor=none;fillColor=none;" vertex="1" parent="1">
          <mxGeometry x="123.5" y="2260" width="90" height="30" as="geometry" />
        </mxCell>
        <mxCell id="ZzYNdUPN7LLtYU_6-GgD-53" value="1" style="text;html=1;align=center;verticalAlign=middle;resizable=0;points=[];autosize=1;strokeColor=none;fillColor=none;" vertex="1" parent="1">
          <mxGeometry x="242.5" y="2290" width="30" height="30" as="geometry" />
        </mxCell>
        <mxCell id="ZzYNdUPN7LLtYU_6-GgD-61" value="" style="endArrow=none;html=1;rounded=0;exitX=1;exitY=0.5;exitDx=0;exitDy=0;entryX=0.001;entryY=0.576;entryDx=0;entryDy=0;entryPerimeter=0;" edge="1" parent="1" source="yJe1_wHuiv2NSmjCoZai-48" target="ZzYNdUPN7LLtYU_6-GgD-4">
          <mxGeometry width="50" height="50" relative="1" as="geometry">
            <mxPoint x="457.5" y="2320" as="sourcePoint" />
            <mxPoint x="347.5" y="2330" as="targetPoint" />
          </mxGeometry>
        </mxCell>
        <mxCell id="ZzYNdUPN7LLtYU_6-GgD-62" value="1" style="text;html=1;align=center;verticalAlign=middle;resizable=0;points=[];autosize=1;strokeColor=none;fillColor=none;" vertex="1" parent="1">
          <mxGeometry x="392.5" y="2320" width="30" height="30" as="geometry" />
        </mxCell>
        <mxCell id="ZzYNdUPN7LLtYU_6-GgD-63" value="" style="endArrow=classic;html=1;rounded=0;" edge="1" parent="1">
          <mxGeometry width="50" height="50" relative="1" as="geometry">
            <mxPoint x="490" y="2309.41" as="sourcePoint" />
            <mxPoint x="530" y="2309.41" as="targetPoint" />
          </mxGeometry>
        </mxCell>
        <mxCell id="ZzYNdUPN7LLtYU_6-GgD-64" value="" style="endArrow=classic;html=1;rounded=0;" edge="1" parent="1">
          <mxGeometry width="50" height="50" relative="1" as="geometry">
            <mxPoint x="535" y="2343" as="sourcePoint" />
            <mxPoint x="495" y="2343" as="targetPoint" />
            <Array as="points" />
          </mxGeometry>
        </mxCell>
        <mxCell id="ZzYNdUPN7LLtYU_6-GgD-65" value="Tiene" style="text;html=1;align=center;verticalAlign=middle;resizable=0;points=[];autosize=1;strokeColor=none;fillColor=none;" vertex="1" parent="1">
          <mxGeometry x="480" y="2275" width="50" height="30" as="geometry" />
        </mxCell>
        <mxCell id="ZzYNdUPN7LLtYU_6-GgD-66" value="1...*" style="text;html=1;align=center;verticalAlign=middle;resizable=0;points=[];autosize=1;strokeColor=none;fillColor=none;" vertex="1" parent="1">
          <mxGeometry x="590.5" y="2287.5" width="40" height="30" as="geometry" />
        </mxCell>
        <mxCell id="ZzYNdUPN7LLtYU_6-GgD-67" value="Pertenecen" style="text;html=1;align=center;verticalAlign=middle;resizable=0;points=[];autosize=1;strokeColor=none;fillColor=none;" vertex="1" parent="1">
          <mxGeometry x="470" y="2345" width="80" height="30" as="geometry" />
        </mxCell>
        <mxCell id="ZzYNdUPN7LLtYU_6-GgD-68" value="Horario" style="rounded=0;whiteSpace=wrap;html=1;fillColor=#B9E0A5;" vertex="1" parent="1">
          <mxGeometry x="626.5" y="2027.5" width="120" height="60" as="geometry" />
        </mxCell>
        <mxCell id="ZzYNdUPN7LLtYU_6-GgD-69" value="" style="endArrow=none;html=1;rounded=0;exitX=0.5;exitY=1;exitDx=0;exitDy=0;entryX=0.224;entryY=-0.01;entryDx=0;entryDy=0;entryPerimeter=0;" edge="1" parent="1" source="ZzYNdUPN7LLtYU_6-GgD-68" target="ZzYNdUPN7LLtYU_6-GgD-4">
          <mxGeometry width="50" height="50" relative="1" as="geometry">
            <mxPoint x="480.5" y="2327.5" as="sourcePoint" />
            <mxPoint x="687" y="2282.5" as="targetPoint" />
          </mxGeometry>
        </mxCell>
        <mxCell id="ZzYNdUPN7LLtYU_6-GgD-70" value="1" style="text;html=1;align=center;verticalAlign=middle;resizable=0;points=[];autosize=1;strokeColor=none;fillColor=none;" vertex="1" parent="1">
          <mxGeometry x="650.5" y="2257.5" width="30" height="30" as="geometry" />
        </mxCell>
        <mxCell id="ZzYNdUPN7LLtYU_6-GgD-71" value="" style="endArrow=classic;html=1;rounded=0;" edge="1" parent="1">
          <mxGeometry width="50" height="50" relative="1" as="geometry">
            <mxPoint x="701.5" y="2245" as="sourcePoint" />
            <mxPoint x="701.5" y="2185" as="targetPoint" />
          </mxGeometry>
        </mxCell>
        <mxCell id="ZzYNdUPN7LLtYU_6-GgD-72" value="Tiene" style="text;html=1;align=center;verticalAlign=middle;resizable=0;points=[];autosize=1;strokeColor=none;fillColor=none;" vertex="1" parent="1">
          <mxGeometry x="700.5" y="2202.5" width="50" height="30" as="geometry" />
        </mxCell>
        <mxCell id="ZzYNdUPN7LLtYU_6-GgD-73" value="" style="endArrow=classic;html=1;rounded=0;" edge="1" parent="1">
          <mxGeometry width="50" height="50" relative="1" as="geometry">
            <mxPoint x="666.5" y="2185.0000000000005" as="sourcePoint" />
            <mxPoint x="666.5" y="2245" as="targetPoint" />
            <Array as="points">
              <mxPoint x="666.5" y="2185.0000000000005" />
            </Array>
          </mxGeometry>
        </mxCell>
        <mxCell id="ZzYNdUPN7LLtYU_6-GgD-74" value="Hacen parte" style="text;html=1;align=center;verticalAlign=middle;resizable=0;points=[];autosize=1;strokeColor=none;fillColor=none;" vertex="1" parent="1">
          <mxGeometry x="580.5" y="2200" width="90" height="30" as="geometry" />
        </mxCell>
        <mxCell id="ZzYNdUPN7LLtYU_6-GgD-75" value="1...*" style="text;html=1;align=center;verticalAlign=middle;resizable=0;points=[];autosize=1;strokeColor=none;fillColor=none;" vertex="1" parent="1">
          <mxGeometry x="685.5" y="2087.5" width="40" height="30" as="geometry" />
        </mxCell>
        <mxCell id="ZzYNdUPN7LLtYU_6-GgD-84" value="" style="endArrow=none;html=1;rounded=0;exitX=0.5;exitY=0;exitDx=0;exitDy=0;entryX=-0.037;entryY=-0.033;entryDx=0;entryDy=0;entryPerimeter=0;" edge="1" parent="1" source="UCLFohhbQZBKjiZj5Wj--6" target="ZzYNdUPN7LLtYU_6-GgD-90">
          <mxGeometry width="50" height="50" relative="1" as="geometry">
            <mxPoint x="759.5" y="2182.5" as="sourcePoint" />
            <mxPoint x="747.625" y="2372.5" as="targetPoint" />
          </mxGeometry>
        </mxCell>
        <mxCell id="ZzYNdUPN7LLtYU_6-GgD-85" value="1" style="text;html=1;align=center;verticalAlign=middle;resizable=0;points=[];autosize=1;strokeColor=none;fillColor=none;" vertex="1" parent="1">
          <mxGeometry x="716.5" y="2492.5" width="30" height="30" as="geometry" />
        </mxCell>
        <mxCell id="ZzYNdUPN7LLtYU_6-GgD-86" value="" style="endArrow=classic;html=1;rounded=0;" edge="1" parent="1">
          <mxGeometry width="50" height="50" relative="1" as="geometry">
            <mxPoint x="766.5" y="2470" as="sourcePoint" />
            <mxPoint x="766.5" y="2410" as="targetPoint" />
          </mxGeometry>
        </mxCell>
        <mxCell id="ZzYNdUPN7LLtYU_6-GgD-87" value="Tiene" style="text;html=1;align=center;verticalAlign=middle;resizable=0;points=[];autosize=1;strokeColor=none;fillColor=none;" vertex="1" parent="1">
          <mxGeometry x="769.5" y="2425" width="50" height="30" as="geometry" />
        </mxCell>
        <mxCell id="ZzYNdUPN7LLtYU_6-GgD-88" value="" style="endArrow=classic;html=1;rounded=0;" edge="1" parent="1">
          <mxGeometry width="50" height="50" relative="1" as="geometry">
            <mxPoint x="731.5" y="2410.0000000000005" as="sourcePoint" />
            <mxPoint x="731.5" y="2470" as="targetPoint" />
            <Array as="points">
              <mxPoint x="731.5" y="2410.0000000000005" />
            </Array>
          </mxGeometry>
        </mxCell>
        <mxCell id="ZzYNdUPN7LLtYU_6-GgD-89" value="Pertenecen" style="text;html=1;align=center;verticalAlign=middle;resizable=0;points=[];autosize=1;strokeColor=none;fillColor=none;" vertex="1" parent="1">
          <mxGeometry x="650.5" y="2425" width="80" height="30" as="geometry" />
        </mxCell>
        <mxCell id="ZzYNdUPN7LLtYU_6-GgD-90" value="1...*" style="text;html=1;align=center;verticalAlign=middle;resizable=0;points=[];autosize=1;strokeColor=none;fillColor=none;" vertex="1" parent="1">
          <mxGeometry x="750.5" y="2347.5" width="40" height="30" as="geometry" />
        </mxCell>
        <mxCell id="KCOi0a424MYB5TtuG4RI-103" value="Mapa" style="rounded=0;whiteSpace=wrap;html=1;fillColor=#B9E0A5;" vertex="1" parent="1">
          <mxGeometry x="1020" y="2287.5" width="120" height="60" as="geometry" />
        </mxCell>
        <mxCell id="KCOi0a424MYB5TtuG4RI-107" value="" style="endArrow=none;html=1;rounded=0;entryX=1;entryY=0.5;entryDx=0;entryDy=0;exitX=0;exitY=0.5;exitDx=0;exitDy=0;" edge="1" parent="1" source="KCOi0a424MYB5TtuG4RI-103" target="ZzYNdUPN7LLtYU_6-GgD-4">
          <mxGeometry width="50" height="50" relative="1" as="geometry">
            <mxPoint x="1108" y="2315" as="sourcePoint" />
            <mxPoint x="907" y="2315" as="targetPoint" />
          </mxGeometry>
        </mxCell>
        <mxCell id="KCOi0a424MYB5TtuG4RI-108" value="1" style="text;html=1;align=center;verticalAlign=middle;resizable=0;points=[];autosize=1;strokeColor=none;fillColor=none;" vertex="1" parent="1">
          <mxGeometry x="990" y="2285" width="30" height="30" as="geometry" />
        </mxCell>
        <mxCell id="KCOi0a424MYB5TtuG4RI-109" value="" style="endArrow=classic;html=1;rounded=0;" edge="1" parent="1">
          <mxGeometry width="50" height="50" relative="1" as="geometry">
            <mxPoint x="935" y="2304.5" as="sourcePoint" />
            <mxPoint x="975" y="2304.5" as="targetPoint" />
          </mxGeometry>
        </mxCell>
        <mxCell id="KCOi0a424MYB5TtuG4RI-110" value="" style="endArrow=classic;html=1;rounded=0;" edge="1" parent="1">
          <mxGeometry width="50" height="50" relative="1" as="geometry">
            <mxPoint x="980" y="2340" as="sourcePoint" />
            <mxPoint x="940" y="2340" as="targetPoint" />
            <Array as="points" />
          </mxGeometry>
        </mxCell>
        <mxCell id="KCOi0a424MYB5TtuG4RI-111" value="Est치n en" style="text;html=1;align=center;verticalAlign=middle;resizable=0;points=[];autosize=1;strokeColor=none;fillColor=none;" vertex="1" parent="1">
          <mxGeometry x="920" y="2270" width="70" height="30" as="geometry" />
        </mxCell>
        <mxCell id="KCOi0a424MYB5TtuG4RI-112" value="1...*" style="text;html=1;align=center;verticalAlign=middle;resizable=0;points=[];autosize=1;strokeColor=none;fillColor=none;" vertex="1" parent="1">
          <mxGeometry x="889.5" y="2317.5" width="40" height="30" as="geometry" />
        </mxCell>
        <mxCell id="KCOi0a424MYB5TtuG4RI-113" value="Tiene" style="text;html=1;align=center;verticalAlign=middle;resizable=0;points=[];autosize=1;strokeColor=none;fillColor=none;" vertex="1" parent="1">
          <mxGeometry x="930" y="2350" width="50" height="30" as="geometry" />
        </mxCell>
        <mxCell id="KCOi0a424MYB5TtuG4RI-114" value="Servicio" style="rounded=0;whiteSpace=wrap;html=1;fillColor=#B9E0A5;" vertex="1" parent="1">
          <mxGeometry x="809.5" y="2027.5" width="120" height="60" as="geometry" />
        </mxCell>
        <mxCell id="KCOi0a424MYB5TtuG4RI-115" value="" style="endArrow=none;html=1;rounded=0;entryX=0.911;entryY=0.017;entryDx=0;entryDy=0;exitX=0.5;exitY=1;exitDx=0;exitDy=0;entryPerimeter=0;" edge="1" parent="1" source="KCOi0a424MYB5TtuG4RI-114" target="ZzYNdUPN7LLtYU_6-GgD-4">
          <mxGeometry width="50" height="50" relative="1" as="geometry">
            <mxPoint x="1332" y="2082.5" as="sourcePoint" />
            <mxPoint x="866.0625" y="2288.5199999999995" as="targetPoint" />
          </mxGeometry>
        </mxCell>
        <mxCell id="KCOi0a424MYB5TtuG4RI-116" value="1" style="text;html=1;align=center;verticalAlign=middle;resizable=0;points=[];autosize=1;strokeColor=none;fillColor=none;" vertex="1" parent="1">
          <mxGeometry x="829.5" y="2257.5" width="30" height="30" as="geometry" />
        </mxCell>
        <mxCell id="KCOi0a424MYB5TtuG4RI-117" value="1...*" style="text;html=1;align=center;verticalAlign=middle;resizable=0;points=[];autosize=1;strokeColor=none;fillColor=none;" vertex="1" parent="1">
          <mxGeometry x="873" y="2087.5" width="40" height="30" as="geometry" />
        </mxCell>
        <mxCell id="KCOi0a424MYB5TtuG4RI-118" value="" style="endArrow=classic;html=1;rounded=0;" edge="1" parent="1">
          <mxGeometry width="50" height="50" relative="1" as="geometry">
            <mxPoint x="888.32" y="2232.5" as="sourcePoint" />
            <mxPoint x="888.32" y="2172.5" as="targetPoint" />
          </mxGeometry>
        </mxCell>
        <mxCell id="KCOi0a424MYB5TtuG4RI-119" value="Tiene" style="text;html=1;align=center;verticalAlign=middle;resizable=0;points=[];autosize=1;strokeColor=none;fillColor=none;" vertex="1" parent="1">
          <mxGeometry x="889.5" y="2187.5" width="50" height="30" as="geometry" />
        </mxCell>
        <mxCell id="KCOi0a424MYB5TtuG4RI-120" value="" style="endArrow=classic;html=1;rounded=0;" edge="1" parent="1">
          <mxGeometry width="50" height="50" relative="1" as="geometry">
            <mxPoint x="842.5" y="2172.5000000000005" as="sourcePoint" />
            <mxPoint x="842.5" y="2232.5" as="targetPoint" />
            <Array as="points">
              <mxPoint x="842.5" y="2172.5000000000005" />
            </Array>
          </mxGeometry>
        </mxCell>
        <mxCell id="KCOi0a424MYB5TtuG4RI-121" value="Hacen parte" style="text;html=1;align=center;verticalAlign=middle;resizable=0;points=[];autosize=1;strokeColor=none;fillColor=none;" vertex="1" parent="1">
          <mxGeometry x="756.5" y="2187.5" width="90" height="30" as="geometry" />
        </mxCell>
        <mxCell id="EqWISysO2wJlds19Kwdn-3" value="" style="endArrow=classic;html=1;rounded=0;" edge="1" parent="1">
          <mxGeometry width="50" height="50" relative="1" as="geometry">
            <mxPoint x="-264" y="2250" as="sourcePoint" />
            <mxPoint x="-264" y="2190" as="targetPoint" />
          </mxGeometry>
        </mxCell>
        <mxCell id="EqWISysO2wJlds19Kwdn-4" value="Pertenece" style="text;html=1;align=center;verticalAlign=middle;resizable=0;points=[];autosize=1;strokeColor=none;fillColor=none;" vertex="1" parent="1">
          <mxGeometry x="-264" y="2210" width="80" height="30" as="geometry" />
        </mxCell>
        <mxCell id="EqWISysO2wJlds19Kwdn-5" value="" style="endArrow=classic;html=1;rounded=0;" edge="1" parent="1">
          <mxGeometry width="50" height="50" relative="1" as="geometry">
            <mxPoint x="-305.9" y="2185.0000000000005" as="sourcePoint" />
            <mxPoint x="-305.9" y="2245" as="targetPoint" />
            <Array as="points">
              <mxPoint x="-305.9" y="2185.0000000000005" />
            </Array>
          </mxGeometry>
        </mxCell>
        <mxCell id="EqWISysO2wJlds19Kwdn-6" value="Tiene" style="text;html=1;align=center;verticalAlign=middle;resizable=0;points=[];autosize=1;strokeColor=none;fillColor=none;" vertex="1" parent="1">
          <mxGeometry x="-363.75" y="2200" width="50" height="30" as="geometry" />
        </mxCell>
        <mxCell id="EqWISysO2wJlds19Kwdn-7" value="" style="endArrow=none;html=1;rounded=0;entryX=0.5;entryY=0;entryDx=0;entryDy=0;exitX=0.5;exitY=1;exitDx=0;exitDy=0;" edge="1" parent="1" source="ZzYNdUPN7LLtYU_6-GgD-8" target="yJe1_wHuiv2NSmjCoZai-11">
          <mxGeometry width="50" height="50" relative="1" as="geometry">
            <mxPoint x="-333" y="2120" as="sourcePoint" />
            <mxPoint x="-513" y="2120" as="targetPoint" />
          </mxGeometry>
        </mxCell>
        <mxCell id="EqWISysO2wJlds19Kwdn-8" value="1...*" style="text;html=1;align=center;verticalAlign=middle;resizable=0;points=[];autosize=1;strokeColor=none;fillColor=none;" vertex="1" parent="1">
          <mxGeometry x="-327.25" y="2260" width="40" height="30" as="geometry" />
        </mxCell>
        <mxCell id="EqWISysO2wJlds19Kwdn-9" value="1" style="text;html=1;align=center;verticalAlign=middle;resizable=0;points=[];autosize=1;strokeColor=none;fillColor=none;" vertex="1" parent="1">
          <mxGeometry x="-282.5" y="2140" width="30" height="30" as="geometry" />
        </mxCell>
        <mxCell id="EqWISysO2wJlds19Kwdn-10" value="" style="endArrow=none;html=1;rounded=0;entryX=0.5;entryY=0;entryDx=0;entryDy=0;exitX=0.5;exitY=1;exitDx=0;exitDy=0;" edge="1" parent="1" source="ZzYNdUPN7LLtYU_6-GgD-7" target="ZzYNdUPN7LLtYU_6-GgD-8">
          <mxGeometry width="50" height="50" relative="1" as="geometry">
            <mxPoint x="-275" y="2150" as="sourcePoint" />
            <mxPoint x="-276" y="2300" as="targetPoint" />
          </mxGeometry>
        </mxCell>
        <mxCell id="EqWISysO2wJlds19Kwdn-11" value="" style="endArrow=classic;html=1;rounded=0;" edge="1" parent="1">
          <mxGeometry width="50" height="50" relative="1" as="geometry">
            <mxPoint x="-264" y="2025" as="sourcePoint" />
            <mxPoint x="-264" y="1965" as="targetPoint" />
          </mxGeometry>
        </mxCell>
        <mxCell id="EqWISysO2wJlds19Kwdn-12" value="Pertenece" style="text;html=1;align=center;verticalAlign=middle;resizable=0;points=[];autosize=1;strokeColor=none;fillColor=none;" vertex="1" parent="1">
          <mxGeometry x="-264" y="1985" width="80" height="30" as="geometry" />
        </mxCell>
        <mxCell id="EqWISysO2wJlds19Kwdn-13" value="" style="endArrow=classic;html=1;rounded=0;" edge="1" parent="1">
          <mxGeometry width="50" height="50" relative="1" as="geometry">
            <mxPoint x="-305.9" y="1960.0000000000005" as="sourcePoint" />
            <mxPoint x="-305.9" y="2020" as="targetPoint" />
            <Array as="points">
              <mxPoint x="-305.9" y="1960.0000000000005" />
            </Array>
          </mxGeometry>
        </mxCell>
        <mxCell id="EqWISysO2wJlds19Kwdn-14" value="Posee" style="text;html=1;align=center;verticalAlign=middle;resizable=0;points=[];autosize=1;strokeColor=none;fillColor=none;" vertex="1" parent="1">
          <mxGeometry x="-368.75" y="1975" width="60" height="30" as="geometry" />
        </mxCell>
        <mxCell id="EqWISysO2wJlds19Kwdn-15" value="1...*" style="text;html=1;align=center;verticalAlign=middle;resizable=0;points=[];autosize=1;strokeColor=none;fillColor=none;" vertex="1" parent="1">
          <mxGeometry x="-327.25" y="2055" width="40" height="30" as="geometry" />
        </mxCell>
        <mxCell id="EqWISysO2wJlds19Kwdn-16" value="1" style="text;html=1;align=center;verticalAlign=middle;resizable=0;points=[];autosize=1;strokeColor=none;fillColor=none;" vertex="1" parent="1">
          <mxGeometry x="-287.25" y="1900" width="30" height="30" as="geometry" />
        </mxCell>
        <mxCell id="9Bc-FJpuQLkK6XBFyVkq-20" style="edgeStyle=orthogonalEdgeStyle;rounded=0;orthogonalLoop=1;jettySize=auto;html=1;entryX=1;entryY=0.5;entryDx=0;entryDy=0;endArrow=none;endFill=0;" edge="1" parent="1" source="eGqVpN6BNpQ9dDIqUztt-4" target="9Bc-FJpuQLkK6XBFyVkq-18">
          <mxGeometry relative="1" as="geometry">
            <Array as="points">
              <mxPoint x="-604" y="2210" />
            </Array>
          </mxGeometry>
        </mxCell>
        <mxCell id="9Bc-FJpuQLkK6XBFyVkq-21" style="edgeStyle=orthogonalEdgeStyle;rounded=0;orthogonalLoop=1;jettySize=auto;html=1;entryX=1;entryY=0.5;entryDx=0;entryDy=0;endArrow=none;endFill=0;exitX=0.002;exitY=0.569;exitDx=0;exitDy=0;exitPerimeter=0;" edge="1" parent="1" source="eGqVpN6BNpQ9dDIqUztt-4" target="9Bc-FJpuQLkK6XBFyVkq-19">
          <mxGeometry relative="1" as="geometry">
            <Array as="points">
              <mxPoint x="-880" y="2324" />
            </Array>
          </mxGeometry>
        </mxCell>
        <mxCell id="eGqVpN6BNpQ9dDIqUztt-4" value="Historial Medico" style="rounded=0;whiteSpace=wrap;html=1;fillColor=#B9E0A5;" vertex="1" parent="1">
          <mxGeometry x="-664" y="2290" width="120" height="60" as="geometry" />
        </mxCell>
        <mxCell id="eGqVpN6BNpQ9dDIqUztt-7" value="" style="endArrow=none;html=1;rounded=0;exitX=1;exitY=0.5;exitDx=0;exitDy=0;entryX=0;entryY=0.5;entryDx=0;entryDy=0;" edge="1" parent="1" source="eGqVpN6BNpQ9dDIqUztt-4" target="yJe1_wHuiv2NSmjCoZai-11">
          <mxGeometry width="50" height="50" relative="1" as="geometry">
            <mxPoint x="-216" y="2330" as="sourcePoint" />
            <mxPoint x="-42" y="2330" as="targetPoint" />
          </mxGeometry>
        </mxCell>
        <mxCell id="O0PX-YlFQhh4IOS50KnT-1" value="Esquema Desparacitaci칩n&amp;nbsp;" style="rounded=0;whiteSpace=wrap;html=1;fillColor=#B9E0A5;" vertex="1" parent="1">
          <mxGeometry x="-564" y="2477.5" width="120" height="60" as="geometry" />
        </mxCell>
        <mxCell id="O0PX-YlFQhh4IOS50KnT-2" value="Esquema Vacunaci칩n" style="rounded=0;whiteSpace=wrap;html=1;fillColor=#B9E0A5;" vertex="1" parent="1">
          <mxGeometry x="-564" y="2610" width="120" height="60" as="geometry" />
        </mxCell>
        <mxCell id="O0PX-YlFQhh4IOS50KnT-4" value="" style="endArrow=none;html=1;rounded=0;exitX=1.001;exitY=0.408;exitDx=0;exitDy=0;exitPerimeter=0;" edge="1" parent="1" source="O0PX-YlFQhh4IOS50KnT-1">
          <mxGeometry width="50" height="50" relative="1" as="geometry">
            <mxPoint x="-275" y="2150" as="sourcePoint" />
            <mxPoint x="-320" y="2350" as="targetPoint" />
            <Array as="points">
              <mxPoint x="-320" y="2502" />
            </Array>
          </mxGeometry>
        </mxCell>
        <mxCell id="O0PX-YlFQhh4IOS50KnT-6" value="" style="endArrow=none;html=1;rounded=0;entryX=0.87;entryY=0.992;entryDx=0;entryDy=0;entryPerimeter=0;exitX=0.995;exitY=0.634;exitDx=0;exitDy=0;exitPerimeter=0;" edge="1" parent="1" source="O0PX-YlFQhh4IOS50KnT-2" target="yJe1_wHuiv2NSmjCoZai-11">
          <mxGeometry width="50" height="50" relative="1" as="geometry">
            <mxPoint x="-440" y="2645" as="sourcePoint" />
            <mxPoint x="-257.25" y="2492.5" as="targetPoint" />
            <Array as="points">
              <mxPoint x="-236" y="2650" />
            </Array>
          </mxGeometry>
        </mxCell>
        <mxCell id="O0PX-YlFQhh4IOS50KnT-7" value="1" style="text;html=1;align=center;verticalAlign=middle;resizable=0;points=[];autosize=1;strokeColor=none;fillColor=none;" vertex="1" parent="1">
          <mxGeometry x="-324" y="2350" width="30" height="30" as="geometry" />
        </mxCell>
        <mxCell id="O0PX-YlFQhh4IOS50KnT-8" value="" style="endArrow=classic;html=1;rounded=0;" edge="1" parent="1">
          <mxGeometry width="50" height="50" relative="1" as="geometry">
            <mxPoint x="-337.5" y="2400.0000000000005" as="sourcePoint" />
            <mxPoint x="-337.5" y="2460" as="targetPoint" />
            <Array as="points">
              <mxPoint x="-337.5" y="2400.0000000000005" />
            </Array>
          </mxGeometry>
        </mxCell>
        <mxCell id="O0PX-YlFQhh4IOS50KnT-9" value="Tiene" style="text;html=1;align=center;verticalAlign=middle;resizable=0;points=[];autosize=1;strokeColor=none;fillColor=none;" vertex="1" parent="1">
          <mxGeometry x="-387.5" y="2420" width="50" height="30" as="geometry" />
        </mxCell>
        <mxCell id="O0PX-YlFQhh4IOS50KnT-10" value="1" style="text;html=1;align=center;verticalAlign=middle;resizable=0;points=[];autosize=1;strokeColor=none;fillColor=none;" vertex="1" parent="1">
          <mxGeometry x="-442.5" y="2470" width="30" height="30" as="geometry" />
        </mxCell>
        <mxCell id="O0PX-YlFQhh4IOS50KnT-12" value="" style="endArrow=classic;html=1;rounded=0;" edge="1" parent="1">
          <mxGeometry width="50" height="50" relative="1" as="geometry">
            <mxPoint x="-307.5" y="2455" as="sourcePoint" />
            <mxPoint x="-307.5" y="2395" as="targetPoint" />
          </mxGeometry>
        </mxCell>
        <mxCell id="O0PX-YlFQhh4IOS50KnT-13" value="Pertenece" style="text;html=1;align=center;verticalAlign=middle;resizable=0;points=[];autosize=1;strokeColor=none;fillColor=none;" vertex="1" parent="1">
          <mxGeometry x="-317.5" y="2415" width="80" height="30" as="geometry" />
        </mxCell>
        <mxCell id="O0PX-YlFQhh4IOS50KnT-14" value="1" style="text;html=1;align=center;verticalAlign=middle;resizable=0;points=[];autosize=1;strokeColor=none;fillColor=none;" vertex="1" parent="1">
          <mxGeometry x="-434" y="2610" width="30" height="30" as="geometry" />
        </mxCell>
        <mxCell id="O0PX-YlFQhh4IOS50KnT-15" value="1" style="text;html=1;align=center;verticalAlign=middle;resizable=0;points=[];autosize=1;strokeColor=none;fillColor=none;" vertex="1" parent="1">
          <mxGeometry x="-242.5" y="2345" width="30" height="30" as="geometry" />
        </mxCell>
        <mxCell id="O0PX-YlFQhh4IOS50KnT-16" value="" style="endArrow=classic;html=1;rounded=0;" edge="1" parent="1">
          <mxGeometry width="50" height="50" relative="1" as="geometry">
            <mxPoint x="-216.5" y="2582.5" as="sourcePoint" />
            <mxPoint x="-216.5" y="2522.5" as="targetPoint" />
          </mxGeometry>
        </mxCell>
        <mxCell id="O0PX-YlFQhh4IOS50KnT-17" value="Pertenece" style="text;html=1;align=center;verticalAlign=middle;resizable=0;points=[];autosize=1;strokeColor=none;fillColor=none;" vertex="1" parent="1">
          <mxGeometry x="-226.5" y="2542.5" width="80" height="30" as="geometry" />
        </mxCell>
        <mxCell id="O0PX-YlFQhh4IOS50KnT-18" value="" style="endArrow=classic;html=1;rounded=0;" edge="1" parent="1">
          <mxGeometry width="50" height="50" relative="1" as="geometry">
            <mxPoint x="-257.50000000000006" y="2522.5000000000005" as="sourcePoint" />
            <mxPoint x="-257.50000000000006" y="2582.5" as="targetPoint" />
            <Array as="points">
              <mxPoint x="-257.50000000000006" y="2522.5000000000005" />
            </Array>
          </mxGeometry>
        </mxCell>
        <mxCell id="O0PX-YlFQhh4IOS50KnT-19" value="Tiene" style="text;html=1;align=center;verticalAlign=middle;resizable=0;points=[];autosize=1;strokeColor=none;fillColor=none;" vertex="1" parent="1">
          <mxGeometry x="-307.50000000000006" y="2542.5" width="50" height="30" as="geometry" />
        </mxCell>
        <mxCell id="9Bc-FJpuQLkK6XBFyVkq-1" value="Desparasitante" style="rounded=0;whiteSpace=wrap;html=1;fillColor=#B9E0A5;" vertex="1" parent="1">
          <mxGeometry x="-830" y="2477.5" width="120" height="60" as="geometry" />
        </mxCell>
        <mxCell id="9Bc-FJpuQLkK6XBFyVkq-2" value="Vacuna" style="rounded=0;whiteSpace=wrap;html=1;fillColor=#B9E0A5;" vertex="1" parent="1">
          <mxGeometry x="-827" y="2610" width="120" height="60" as="geometry" />
        </mxCell>
        <mxCell id="9Bc-FJpuQLkK6XBFyVkq-3" value="" style="endArrow=none;html=1;rounded=0;exitX=1;exitY=0.5;exitDx=0;exitDy=0;entryX=0;entryY=0.5;entryDx=0;entryDy=0;" edge="1" parent="1" source="9Bc-FJpuQLkK6XBFyVkq-1" target="O0PX-YlFQhh4IOS50KnT-1">
          <mxGeometry width="50" height="50" relative="1" as="geometry">
            <mxPoint x="-534" y="2330" as="sourcePoint" />
            <mxPoint x="-337" y="2330" as="targetPoint" />
          </mxGeometry>
        </mxCell>
        <mxCell id="9Bc-FJpuQLkK6XBFyVkq-4" value="" style="endArrow=none;html=1;rounded=0;exitX=1;exitY=0.5;exitDx=0;exitDy=0;entryX=0;entryY=0.5;entryDx=0;entryDy=0;" edge="1" parent="1" source="9Bc-FJpuQLkK6XBFyVkq-2" target="O0PX-YlFQhh4IOS50KnT-2">
          <mxGeometry width="50" height="50" relative="1" as="geometry">
            <mxPoint x="-670" y="2518" as="sourcePoint" />
            <mxPoint x="-554" y="2518" as="targetPoint" />
          </mxGeometry>
        </mxCell>
        <mxCell id="9Bc-FJpuQLkK6XBFyVkq-5" value="1" style="text;html=1;align=center;verticalAlign=middle;resizable=0;points=[];autosize=1;strokeColor=none;fillColor=none;" vertex="1" parent="1">
          <mxGeometry x="-594" y="2477.5" width="30" height="30" as="geometry" />
        </mxCell>
        <mxCell id="9Bc-FJpuQLkK6XBFyVkq-6" value="1...*" style="text;html=1;align=center;verticalAlign=middle;resizable=0;points=[];autosize=1;strokeColor=none;fillColor=none;" vertex="1" parent="1">
          <mxGeometry x="-715" y="2507.5" width="40" height="30" as="geometry" />
        </mxCell>
        <mxCell id="9Bc-FJpuQLkK6XBFyVkq-8" value="" style="endArrow=classic;html=1;rounded=0;" edge="1" parent="1">
          <mxGeometry width="50" height="50" relative="1" as="geometry">
            <mxPoint x="-613.75" y="2525.5" as="sourcePoint" />
            <mxPoint x="-653.75" y="2525.5" as="targetPoint" />
            <Array as="points" />
          </mxGeometry>
        </mxCell>
        <mxCell id="9Bc-FJpuQLkK6XBFyVkq-9" value="" style="endArrow=classic;html=1;rounded=0;" edge="1" parent="1">
          <mxGeometry width="50" height="50" relative="1" as="geometry">
            <mxPoint x="-656" y="2493" as="sourcePoint" />
            <mxPoint x="-616" y="2492.5" as="targetPoint" />
          </mxGeometry>
        </mxCell>
        <mxCell id="9Bc-FJpuQLkK6XBFyVkq-10" value="" style="endArrow=classic;html=1;rounded=0;" edge="1" parent="1">
          <mxGeometry width="50" height="50" relative="1" as="geometry">
            <mxPoint x="-613.75" y="2656.16" as="sourcePoint" />
            <mxPoint x="-653.75" y="2656.16" as="targetPoint" />
            <Array as="points" />
          </mxGeometry>
        </mxCell>
        <mxCell id="9Bc-FJpuQLkK6XBFyVkq-11" value="" style="endArrow=classic;html=1;rounded=0;" edge="1" parent="1">
          <mxGeometry width="50" height="50" relative="1" as="geometry">
            <mxPoint x="-656" y="2623.66" as="sourcePoint" />
            <mxPoint x="-616" y="2623.16" as="targetPoint" />
          </mxGeometry>
        </mxCell>
        <mxCell id="9Bc-FJpuQLkK6XBFyVkq-12" value="Tiene" style="text;html=1;align=center;verticalAlign=middle;resizable=0;points=[];autosize=1;strokeColor=none;fillColor=none;" vertex="1" parent="1">
          <mxGeometry x="-660" y="2530" width="50" height="30" as="geometry" />
        </mxCell>
        <mxCell id="9Bc-FJpuQLkK6XBFyVkq-13" value="Pertenece" style="text;html=1;align=center;verticalAlign=middle;resizable=0;points=[];autosize=1;strokeColor=none;fillColor=none;" vertex="1" parent="1">
          <mxGeometry x="-675" y="2455" width="80" height="30" as="geometry" />
        </mxCell>
        <mxCell id="9Bc-FJpuQLkK6XBFyVkq-14" value="1" style="text;html=1;align=center;verticalAlign=middle;resizable=0;points=[];autosize=1;strokeColor=none;fillColor=none;" vertex="1" parent="1">
          <mxGeometry x="-589.5" y="2610" width="30" height="30" as="geometry" />
        </mxCell>
        <mxCell id="9Bc-FJpuQLkK6XBFyVkq-15" value="1...*" style="text;html=1;align=center;verticalAlign=middle;resizable=0;points=[];autosize=1;strokeColor=none;fillColor=none;" vertex="1" parent="1">
          <mxGeometry x="-710.5" y="2640" width="40" height="30" as="geometry" />
        </mxCell>
        <mxCell id="9Bc-FJpuQLkK6XBFyVkq-16" value="Tiene" style="text;html=1;align=center;verticalAlign=middle;resizable=0;points=[];autosize=1;strokeColor=none;fillColor=none;" vertex="1" parent="1">
          <mxGeometry x="-655.5" y="2662.5" width="50" height="30" as="geometry" />
        </mxCell>
        <mxCell id="9Bc-FJpuQLkK6XBFyVkq-17" value="Pertenece" style="text;html=1;align=center;verticalAlign=middle;resizable=0;points=[];autosize=1;strokeColor=none;fillColor=none;" vertex="1" parent="1">
          <mxGeometry x="-675" y="2587.5" width="80" height="30" as="geometry" />
        </mxCell>
        <mxCell id="9Bc-FJpuQLkK6XBFyVkq-18" value="Procedimiento" style="rounded=0;whiteSpace=wrap;html=1;fillColor=#B9E0A5;" vertex="1" parent="1">
          <mxGeometry x="-1000" y="2180" width="120" height="60" as="geometry" />
        </mxCell>
        <mxCell id="9Bc-FJpuQLkK6XBFyVkq-19" value="Emergencia" style="rounded=0;whiteSpace=wrap;html=1;fillColor=#B9E0A5;" vertex="1" parent="1">
          <mxGeometry x="-1000" y="2300" width="120" height="60" as="geometry" />
        </mxCell>
        <mxCell id="broE6zxxKq59yT7_UzNR-1" value="1" style="text;html=1;align=center;verticalAlign=middle;resizable=0;points=[];autosize=1;strokeColor=none;fillColor=none;" vertex="1" parent="1">
          <mxGeometry x="-694" y="2290" width="30" height="30" as="geometry" />
        </mxCell>
        <mxCell id="broE6zxxKq59yT7_UzNR-2" value="1...*" style="text;html=1;align=center;verticalAlign=middle;resizable=0;points=[];autosize=1;strokeColor=none;fillColor=none;" vertex="1" parent="1">
          <mxGeometry x="-880" y="2330" width="40" height="30" as="geometry" />
        </mxCell>
        <mxCell id="broE6zxxKq59yT7_UzNR-3" value="" style="endArrow=classic;html=1;rounded=0;" edge="1" parent="1">
          <mxGeometry width="50" height="50" relative="1" as="geometry">
            <mxPoint x="-748.75" y="2348" as="sourcePoint" />
            <mxPoint x="-788.75" y="2348" as="targetPoint" />
            <Array as="points" />
          </mxGeometry>
        </mxCell>
        <mxCell id="broE6zxxKq59yT7_UzNR-4" value="" style="endArrow=classic;html=1;rounded=0;" edge="1" parent="1">
          <mxGeometry width="50" height="50" relative="1" as="geometry">
            <mxPoint x="-791" y="2315.5" as="sourcePoint" />
            <mxPoint x="-751" y="2315" as="targetPoint" />
          </mxGeometry>
        </mxCell>
        <mxCell id="broE6zxxKq59yT7_UzNR-5" value="Tiene" style="text;html=1;align=center;verticalAlign=middle;resizable=0;points=[];autosize=1;strokeColor=none;fillColor=none;" vertex="1" parent="1">
          <mxGeometry x="-795" y="2352.5" width="50" height="30" as="geometry" />
        </mxCell>
        <mxCell id="broE6zxxKq59yT7_UzNR-6" value="Pertenece" style="text;html=1;align=center;verticalAlign=middle;resizable=0;points=[];autosize=1;strokeColor=none;fillColor=none;" vertex="1" parent="1">
          <mxGeometry x="-810" y="2277.5" width="80" height="30" as="geometry" />
        </mxCell>
        <mxCell id="broE6zxxKq59yT7_UzNR-7" value="" style="endArrow=classic;html=1;rounded=0;" edge="1" parent="1">
          <mxGeometry width="50" height="50" relative="1" as="geometry">
            <mxPoint x="-733.75" y="2230.5" as="sourcePoint" />
            <mxPoint x="-773.75" y="2230.5" as="targetPoint" />
            <Array as="points" />
          </mxGeometry>
        </mxCell>
        <mxCell id="broE6zxxKq59yT7_UzNR-8" value="" style="endArrow=classic;html=1;rounded=0;" edge="1" parent="1">
          <mxGeometry width="50" height="50" relative="1" as="geometry">
            <mxPoint x="-776" y="2198" as="sourcePoint" />
            <mxPoint x="-736" y="2197.5" as="targetPoint" />
          </mxGeometry>
        </mxCell>
        <mxCell id="broE6zxxKq59yT7_UzNR-9" value="Tiene" style="text;html=1;align=center;verticalAlign=middle;resizable=0;points=[];autosize=1;strokeColor=none;fillColor=none;" vertex="1" parent="1">
          <mxGeometry x="-780" y="2235" width="50" height="30" as="geometry" />
        </mxCell>
        <mxCell id="broE6zxxKq59yT7_UzNR-10" value="Pertenece" style="text;html=1;align=center;verticalAlign=middle;resizable=0;points=[];autosize=1;strokeColor=none;fillColor=none;" vertex="1" parent="1">
          <mxGeometry x="-795" y="2160" width="80" height="30" as="geometry" />
        </mxCell>
        <mxCell id="broE6zxxKq59yT7_UzNR-11" value="1" style="text;html=1;align=center;verticalAlign=middle;resizable=0;points=[];autosize=1;strokeColor=none;fillColor=none;" vertex="1" parent="1">
          <mxGeometry x="-605.5" y="2260" width="30" height="30" as="geometry" />
        </mxCell>
        <mxCell id="broE6zxxKq59yT7_UzNR-12" value="1...*" style="text;html=1;align=center;verticalAlign=middle;resizable=0;points=[];autosize=1;strokeColor=none;fillColor=none;" vertex="1" parent="1">
          <mxGeometry x="-880" y="2210" width="40" height="30" as="geometry" />
        </mxCell>
      </root>
    </mxGraphModel>
  </diagram>
</mxfile>
